<mxfile host="app.diagrams.net" agent="Mozilla/5.0 (Windows NT 10.0; Win64; x64) AppleWebKit/537.36 (KHTML, like Gecko) Chrome/135.0.0.0 Safari/537.36 Edg/135.0.0.0" version="26.2.9" pages="2">
  <diagram name="Carimbo de entrega no Email" id="2lCL9pdjSwzXqbeYY4HG">
    <mxGraphModel dx="2247" dy="752" grid="1" gridSize="10" guides="1" tooltips="1" connect="1" arrows="1" fold="1" page="1" pageScale="1" pageWidth="827" pageHeight="1169" math="0" shadow="0">
      <root>
        <mxCell id="0" />
        <mxCell id="1" parent="0" />
        <mxCell id="GK9JkIOlpKe_d5EvESm7-1" value="MongoDB" style="shape=cylinder3;whiteSpace=wrap;html=1;boundedLbl=1;backgroundOutline=1;size=15;fillColor=#ffe6cc;strokeColor=#d79b00;" parent="1" vertex="1">
          <mxGeometry x="570" y="360" width="60" height="80" as="geometry" />
        </mxCell>
        <mxCell id="GK9JkIOlpKe_d5EvESm7-42" value="" style="edgeStyle=orthogonalEdgeStyle;rounded=0;orthogonalLoop=1;jettySize=auto;html=1;" parent="1" source="GK9JkIOlpKe_d5EvESm7-2" target="GK9JkIOlpKe_d5EvESm7-6" edge="1">
          <mxGeometry relative="1" as="geometry" />
        </mxCell>
        <mxCell id="GK9JkIOlpKe_d5EvESm7-2" value="Data-API" style="rounded=1;whiteSpace=wrap;html=1;" parent="1" vertex="1">
          <mxGeometry x="70" y="210" width="120" height="60" as="geometry" />
        </mxCell>
        <mxCell id="GK9JkIOlpKe_d5EvESm7-7" value="" style="edgeStyle=orthogonalEdgeStyle;rounded=0;orthogonalLoop=1;jettySize=auto;html=1;" parent="1" source="GK9JkIOlpKe_d5EvESm7-3" target="GK9JkIOlpKe_d5EvESm7-6" edge="1">
          <mxGeometry relative="1" as="geometry" />
        </mxCell>
        <mxCell id="GK9JkIOlpKe_d5EvESm7-15" style="edgeStyle=orthogonalEdgeStyle;rounded=0;orthogonalLoop=1;jettySize=auto;html=1;" parent="1" source="GK9JkIOlpKe_d5EvESm7-3" target="GK9JkIOlpKe_d5EvESm7-9" edge="1">
          <mxGeometry relative="1" as="geometry">
            <Array as="points">
              <mxPoint x="334" y="300" />
            </Array>
          </mxGeometry>
        </mxCell>
        <mxCell id="GK9JkIOlpKe_d5EvESm7-39" style="edgeStyle=orthogonalEdgeStyle;rounded=0;orthogonalLoop=1;jettySize=auto;html=1;" parent="1" source="GK9JkIOlpKe_d5EvESm7-3" target="GK9JkIOlpKe_d5EvESm7-2" edge="1">
          <mxGeometry relative="1" as="geometry" />
        </mxCell>
        <mxCell id="GK9JkIOlpKe_d5EvESm7-40" value="&lt;div&gt;&lt;br&gt;&lt;/div&gt;&lt;div&gt;1. Verificar se a comunicação tem flag para &quot;carimbo&quot;&lt;/div&gt;&lt;div&gt;&lt;br&gt;&lt;/div&gt;&lt;div&gt;2. Pega os logs do envio do SMTP&lt;/div&gt;&lt;div&gt;&lt;br&gt;&lt;/div&gt;3. Pega o link temporário da comunicação" style="edgeLabel;html=1;align=center;verticalAlign=middle;resizable=0;points=[];" parent="GK9JkIOlpKe_d5EvESm7-39" vertex="1" connectable="0">
          <mxGeometry x="0.3814" y="2" relative="1" as="geometry">
            <mxPoint x="22" y="-22" as="offset" />
          </mxGeometry>
        </mxCell>
        <mxCell id="GK9JkIOlpKe_d5EvESm7-3" value="carimbador - entrega&lt;div&gt;&lt;br&gt;&lt;/div&gt;&lt;div&gt;(TODO: ver outros canais)&lt;/div&gt;" style="rounded=1;whiteSpace=wrap;html=1;" parent="1" vertex="1">
          <mxGeometry x="274" y="330" width="120" height="60" as="geometry" />
        </mxCell>
        <mxCell id="GK9JkIOlpKe_d5EvESm7-5" value="" style="points=[];aspect=fixed;html=1;align=center;shadow=0;dashed=0;fillColor=#FF6A00;strokeColor=none;shape=mxgraph.alibaba_cloud.kafka;" parent="1" vertex="1">
          <mxGeometry x="304" y="210" width="56.699999999999996" height="42" as="geometry" />
        </mxCell>
        <mxCell id="GK9JkIOlpKe_d5EvESm7-6" value="&lt;span style=&quot;text-wrap-mode: wrap;&quot;&gt;communication-delivered&lt;/span&gt;" style="text;html=1;align=center;verticalAlign=top;resizable=0;points=[];autosize=1;strokeColor=none;fillColor=none;labelPosition=center;verticalLabelPosition=bottom;" parent="1" vertex="1">
          <mxGeometry x="254" y="225" width="160" height="30" as="geometry" />
        </mxCell>
        <mxCell id="GK9JkIOlpKe_d5EvESm7-10" value="" style="edgeStyle=orthogonalEdgeStyle;rounded=0;orthogonalLoop=1;jettySize=auto;html=1;" parent="1" source="GK9JkIOlpKe_d5EvESm7-9" target="GK9JkIOlpKe_d5EvESm7-1" edge="1">
          <mxGeometry relative="1" as="geometry" />
        </mxCell>
        <mxCell id="GK9JkIOlpKe_d5EvESm7-13" style="edgeStyle=orthogonalEdgeStyle;rounded=0;orthogonalLoop=1;jettySize=auto;html=1;" parent="1" source="GK9JkIOlpKe_d5EvESm7-9" target="GK9JkIOlpKe_d5EvESm7-11" edge="1">
          <mxGeometry relative="1" as="geometry">
            <Array as="points">
              <mxPoint x="710" y="282" />
              <mxPoint x="710" y="350" />
            </Array>
          </mxGeometry>
        </mxCell>
        <mxCell id="GK9JkIOlpKe_d5EvESm7-14" style="edgeStyle=orthogonalEdgeStyle;rounded=0;orthogonalLoop=1;jettySize=auto;html=1;" parent="1" source="GK9JkIOlpKe_d5EvESm7-9" target="GK9JkIOlpKe_d5EvESm7-12" edge="1">
          <mxGeometry relative="1" as="geometry" />
        </mxCell>
        <mxCell id="GK9JkIOlpKe_d5EvESm7-9" value="carimbador - TST&amp;nbsp;" style="rounded=1;whiteSpace=wrap;html=1;fillColor=#ffe6cc;strokeColor=#d79b00;" parent="1" vertex="1">
          <mxGeometry x="540" y="252" width="120" height="60" as="geometry" />
        </mxCell>
        <mxCell id="GK9JkIOlpKe_d5EvESm7-11" value="Valid Certificadora" style="rounded=1;whiteSpace=wrap;html=1;" parent="1" vertex="1">
          <mxGeometry x="758" y="320" width="120" height="60" as="geometry" />
        </mxCell>
        <mxCell id="GK9JkIOlpKe_d5EvESm7-12" value="SERPRO" style="rounded=1;whiteSpace=wrap;html=1;" parent="1" vertex="1">
          <mxGeometry x="758" y="210" width="120" height="60" as="geometry" />
        </mxCell>
        <mxCell id="GK9JkIOlpKe_d5EvESm7-19" value="" style="edgeStyle=orthogonalEdgeStyle;rounded=0;orthogonalLoop=1;jettySize=auto;html=1;" parent="1" source="GK9JkIOlpKe_d5EvESm7-16" target="GK9JkIOlpKe_d5EvESm7-18" edge="1">
          <mxGeometry relative="1" as="geometry" />
        </mxCell>
        <mxCell id="GK9JkIOlpKe_d5EvESm7-16" value="serviço de imagem&amp;nbsp;" style="rounded=1;whiteSpace=wrap;html=1;fillColor=#ffe6cc;strokeColor=#d79b00;" parent="1" vertex="1">
          <mxGeometry x="420" y="525" width="120" height="60" as="geometry" />
        </mxCell>
        <mxCell id="GK9JkIOlpKe_d5EvESm7-18" value="bucket GCS" style="shape=cylinder3;whiteSpace=wrap;html=1;boundedLbl=1;backgroundOutline=1;size=15;" parent="1" vertex="1">
          <mxGeometry x="450" y="610" width="60" height="80" as="geometry" />
        </mxCell>
        <mxCell id="GK9JkIOlpKe_d5EvESm7-23" style="edgeStyle=orthogonalEdgeStyle;rounded=0;orthogonalLoop=1;jettySize=auto;html=1;" parent="1" source="GK9JkIOlpKe_d5EvESm7-21" target="GK9JkIOlpKe_d5EvESm7-2" edge="1">
          <mxGeometry relative="1" as="geometry" />
        </mxCell>
        <mxCell id="GK9JkIOlpKe_d5EvESm7-24" style="edgeStyle=orthogonalEdgeStyle;rounded=0;orthogonalLoop=1;jettySize=auto;html=1;" parent="1" source="GK9JkIOlpKe_d5EvESm7-21" target="GK9JkIOlpKe_d5EvESm7-25" edge="1">
          <mxGeometry relative="1" as="geometry">
            <mxPoint x="-150" y="380" as="targetPoint" />
          </mxGeometry>
        </mxCell>
        <mxCell id="GK9JkIOlpKe_d5EvESm7-21" value="Email-Producer" style="rounded=1;whiteSpace=wrap;html=1;" parent="1" vertex="1">
          <mxGeometry x="-210" y="210" width="120" height="60" as="geometry" />
        </mxCell>
        <mxCell id="GK9JkIOlpKe_d5EvESm7-27" value="" style="edgeStyle=orthogonalEdgeStyle;rounded=0;orthogonalLoop=1;jettySize=auto;html=1;" parent="1" source="GK9JkIOlpKe_d5EvESm7-25" target="GK9JkIOlpKe_d5EvESm7-26" edge="1">
          <mxGeometry relative="1" as="geometry" />
        </mxCell>
        <mxCell id="GK9JkIOlpKe_d5EvESm7-28" value="Sim" style="edgeLabel;html=1;align=center;verticalAlign=middle;resizable=0;points=[];" parent="GK9JkIOlpKe_d5EvESm7-27" vertex="1" connectable="0">
          <mxGeometry x="-0.2762" y="1" relative="1" as="geometry">
            <mxPoint as="offset" />
          </mxGeometry>
        </mxCell>
        <mxCell id="GK9JkIOlpKe_d5EvESm7-25" value="Verifica se email tem carimbo de entrega" style="rhombus;whiteSpace=wrap;html=1;" parent="1" vertex="1">
          <mxGeometry x="-210" y="345" width="120" height="110" as="geometry" />
        </mxCell>
        <mxCell id="GK9JkIOlpKe_d5EvESm7-29" style="edgeStyle=orthogonalEdgeStyle;rounded=0;orthogonalLoop=1;jettySize=auto;html=1;" parent="1" source="GK9JkIOlpKe_d5EvESm7-26" target="GK9JkIOlpKe_d5EvESm7-3" edge="1">
          <mxGeometry relative="1" as="geometry" />
        </mxCell>
        <mxCell id="GK9JkIOlpKe_d5EvESm7-31" value="" style="edgeStyle=orthogonalEdgeStyle;rounded=0;orthogonalLoop=1;jettySize=auto;html=1;" parent="1" source="GK9JkIOlpKe_d5EvESm7-26" target="GK9JkIOlpKe_d5EvESm7-30" edge="1">
          <mxGeometry relative="1" as="geometry" />
        </mxCell>
        <mxCell id="GK9JkIOlpKe_d5EvESm7-26" value="Solicita link temporário para o serviço de imagem de carimbo" style="whiteSpace=wrap;html=1;" parent="1" vertex="1">
          <mxGeometry x="-210" y="510" width="120" height="60" as="geometry" />
        </mxCell>
        <mxCell id="GK9JkIOlpKe_d5EvESm7-30" value="Insere link de imagem temporario dentro do HTML do email" style="whiteSpace=wrap;html=1;" parent="1" vertex="1">
          <mxGeometry x="-210" y="620" width="120" height="60" as="geometry" />
        </mxCell>
        <mxCell id="GK9JkIOlpKe_d5EvESm7-38" value="" style="edgeStyle=orthogonalEdgeStyle;rounded=0;orthogonalLoop=1;jettySize=auto;html=1;" parent="1" source="GK9JkIOlpKe_d5EvESm7-3" target="GK9JkIOlpKe_d5EvESm7-16" edge="1">
          <mxGeometry relative="1" as="geometry">
            <mxPoint x="334" y="480" as="sourcePoint" />
          </mxGeometry>
        </mxCell>
        <mxCell id="GK9JkIOlpKe_d5EvESm7-41" value="&lt;div&gt;&lt;span style=&quot;font-size: 12px; text-wrap-mode: wrap; background-color: rgb(251, 251, 251);&quot;&gt;&lt;span style=&quot;font-size: 11px; text-wrap-mode: nowrap; background-color: rgb(255, 255, 255);&quot;&gt;1. Chamar o carimbador (Generico)&lt;/span&gt;&lt;/span&gt;&lt;/div&gt;&lt;div&gt;&lt;span style=&quot;font-size: 12px; text-wrap-mode: wrap; background-color: rgb(251, 251, 251);&quot;&gt;&lt;br&gt;&lt;/span&gt;&lt;/div&gt;&lt;div&gt;&lt;span style=&quot;font-size: 12px; text-wrap-mode: wrap; background-color: rgb(251, 251, 251);&quot;&gt;2. Cria a imagem com o SN&lt;/span&gt;&lt;/div&gt;&lt;div&gt;&lt;span style=&quot;font-size: 12px; text-wrap-mode: wrap; background-color: rgb(251, 251, 251);&quot;&gt;&lt;br&gt;&lt;/span&gt;&lt;/div&gt;&lt;div&gt;&lt;span style=&quot;font-size: 12px; text-wrap-mode: wrap; background-color: rgb(251, 251, 251);&quot;&gt;3. Salva a&amp;nbsp;&lt;/span&gt;&lt;span style=&quot;background-color: light-dark(rgb(251, 251, 251), rgb(21, 21, 21)); font-size: 12px; text-wrap-mode: wrap; color: light-dark(rgb(0, 0, 0), rgb(255, 255, 255));&quot;&gt;imagem para o link da comunicação&lt;/span&gt;&lt;/div&gt;" style="edgeLabel;html=1;align=center;verticalAlign=middle;resizable=0;points=[];" parent="GK9JkIOlpKe_d5EvESm7-38" vertex="1" connectable="0">
          <mxGeometry x="-0.55" y="4" relative="1" as="geometry">
            <mxPoint x="26" y="74" as="offset" />
          </mxGeometry>
        </mxCell>
        <mxCell id="GK9JkIOlpKe_d5EvESm7-44" style="edgeStyle=orthogonalEdgeStyle;rounded=0;orthogonalLoop=1;jettySize=auto;html=1;" parent="1" source="GK9JkIOlpKe_d5EvESm7-43" target="GK9JkIOlpKe_d5EvESm7-16" edge="1">
          <mxGeometry relative="1" as="geometry">
            <Array as="points">
              <mxPoint x="710" y="570" />
            </Array>
          </mxGeometry>
        </mxCell>
        <mxCell id="G6NmhX7UGvOXbWNcZWR5-1" value="GET do link da imagem" style="edgeLabel;html=1;align=center;verticalAlign=middle;resizable=0;points=[];" vertex="1" connectable="0" parent="GK9JkIOlpKe_d5EvESm7-44">
          <mxGeometry x="0.1448" y="-2" relative="1" as="geometry">
            <mxPoint as="offset" />
          </mxGeometry>
        </mxCell>
        <mxCell id="GK9JkIOlpKe_d5EvESm7-43" value="Destinatário do Email" style="shape=umlActor;verticalLabelPosition=bottom;verticalAlign=top;html=1;outlineConnect=0;" parent="1" vertex="1">
          <mxGeometry x="690" y="620" width="30" height="60" as="geometry" />
        </mxCell>
        <mxCell id="k-sZ2wOe6czBFOAfIENY-8" style="edgeStyle=orthogonalEdgeStyle;rounded=0;orthogonalLoop=1;jettySize=auto;html=1;" parent="1" source="k-sZ2wOe6czBFOAfIENY-1" target="GK9JkIOlpKe_d5EvESm7-2" edge="1">
          <mxGeometry relative="1" as="geometry" />
        </mxCell>
        <mxCell id="k-sZ2wOe6czBFOAfIENY-9" value="&lt;div&gt;&lt;br&gt;&lt;/div&gt;&lt;div&gt;1. Verifica se tem carimbo de entrega&lt;/div&gt;&lt;div&gt;&lt;br&gt;&lt;/div&gt;&lt;div&gt;2. Pega os logs do envio SMTP quando tem carimbo&lt;/div&gt;&lt;div&gt;&lt;br&gt;&lt;/div&gt;&lt;div&gt;3. Grava os logs do envio do SMTP&lt;/div&gt;" style="edgeLabel;html=1;align=center;verticalAlign=middle;resizable=0;points=[];" parent="k-sZ2wOe6czBFOAfIENY-8" vertex="1" connectable="0">
          <mxGeometry x="-0.4" relative="1" as="geometry">
            <mxPoint as="offset" />
          </mxGeometry>
        </mxCell>
        <mxCell id="k-sZ2wOe6czBFOAfIENY-1" value="Email-Sender" style="rounded=1;whiteSpace=wrap;html=1;" parent="1" vertex="1">
          <mxGeometry x="70" y="40" width="120" height="60" as="geometry" />
        </mxCell>
        <mxCell id="k-sZ2wOe6czBFOAfIENY-10" value="Socketlabs" style="shape=umlActor;verticalLabelPosition=bottom;verticalAlign=top;html=1;outlineConnect=0;fillColor=#d5e8d4;strokeColor=#82b366;" parent="1" vertex="1">
          <mxGeometry x="570" y="40" width="30" height="60" as="geometry" />
        </mxCell>
        <mxCell id="k-sZ2wOe6czBFOAfIENY-11" style="edgeStyle=orthogonalEdgeStyle;rounded=0;orthogonalLoop=1;jettySize=auto;html=1;entryX=0.617;entryY=0.095;entryDx=0;entryDy=0;entryPerimeter=0;" parent="1" source="k-sZ2wOe6czBFOAfIENY-10" target="GK9JkIOlpKe_d5EvESm7-5" edge="1">
          <mxGeometry relative="1" as="geometry" />
        </mxCell>
        <mxCell id="k-sZ2wOe6czBFOAfIENY-12" value="Informa comunicação entregue" style="edgeLabel;html=1;align=center;verticalAlign=middle;resizable=0;points=[];labelBorderColor=none;" parent="k-sZ2wOe6czBFOAfIENY-11" vertex="1" connectable="0">
          <mxGeometry x="-0.0453" y="2" relative="1" as="geometry">
            <mxPoint as="offset" />
          </mxGeometry>
        </mxCell>
        <mxCell id="G6NmhX7UGvOXbWNcZWR5-4" value="" style="edgeStyle=orthogonalEdgeStyle;rounded=0;orthogonalLoop=1;jettySize=auto;html=1;" edge="1" parent="1" source="G6NmhX7UGvOXbWNcZWR5-2" target="G6NmhX7UGvOXbWNcZWR5-3">
          <mxGeometry relative="1" as="geometry" />
        </mxCell>
        <mxCell id="G6NmhX7UGvOXbWNcZWR5-5" style="edgeStyle=orthogonalEdgeStyle;rounded=0;orthogonalLoop=1;jettySize=auto;html=1;" edge="1" parent="1" source="G6NmhX7UGvOXbWNcZWR5-2" target="GK9JkIOlpKe_d5EvESm7-9">
          <mxGeometry relative="1" as="geometry">
            <Array as="points">
              <mxPoint x="863" y="160" />
              <mxPoint x="600" y="160" />
            </Array>
          </mxGeometry>
        </mxCell>
        <mxCell id="G6NmhX7UGvOXbWNcZWR5-6" value="Solicita informações do carimbo para o Laudo" style="edgeLabel;html=1;align=center;verticalAlign=middle;resizable=0;points=[];" vertex="1" connectable="0" parent="G6NmhX7UGvOXbWNcZWR5-5">
          <mxGeometry x="-0.0265" y="-3" relative="1" as="geometry">
            <mxPoint as="offset" />
          </mxGeometry>
        </mxCell>
        <mxCell id="G6NmhX7UGvOXbWNcZWR5-2" value="DeliveryCenter" style="shape=umlActor;verticalLabelPosition=bottom;verticalAlign=top;html=1;outlineConnect=0;fillColor=#d5e8d4;strokeColor=#82b366;" vertex="1" parent="1">
          <mxGeometry x="955" y="20" width="30" height="60" as="geometry" />
        </mxCell>
        <mxCell id="G6NmhX7UGvOXbWNcZWR5-3" value="DeliveryCenter DB" style="shape=cylinder3;whiteSpace=wrap;html=1;boundedLbl=1;backgroundOutline=1;size=15;" vertex="1" parent="1">
          <mxGeometry x="945" y="120" width="50" height="65" as="geometry" />
        </mxCell>
      </root>
    </mxGraphModel>
  </diagram>
  <diagram id="NgdECJcQnb2c5gxusBHl" name="Anexo como link">
    <mxGraphModel dx="2253" dy="747" grid="1" gridSize="10" guides="1" tooltips="1" connect="1" arrows="1" fold="1" page="1" pageScale="1" pageWidth="827" pageHeight="1169" math="0" shadow="0">
      <root>
        <mxCell id="0" />
        <mxCell id="1" parent="0" />
        <mxCell id="pyLCp4sSMca1QJsfAdAN-15" value="" style="edgeStyle=orthogonalEdgeStyle;rounded=0;orthogonalLoop=1;jettySize=auto;html=1;" edge="1" parent="1" source="JKJViXq0e64Cg5qJfuD_-1" target="pyLCp4sSMca1QJsfAdAN-14">
          <mxGeometry relative="1" as="geometry" />
        </mxCell>
        <mxCell id="JKJViXq0e64Cg5qJfuD_-1" value="Data-API" style="rounded=1;whiteSpace=wrap;html=1;" vertex="1" parent="1">
          <mxGeometry x="70" y="210" width="120" height="60" as="geometry" />
        </mxCell>
        <mxCell id="JKJViXq0e64Cg5qJfuD_-4" style="edgeStyle=orthogonalEdgeStyle;rounded=0;orthogonalLoop=1;jettySize=auto;html=1;" edge="1" parent="1" source="JKJViXq0e64Cg5qJfuD_-2" target="JKJViXq0e64Cg5qJfuD_-1">
          <mxGeometry relative="1" as="geometry" />
        </mxCell>
        <mxCell id="nRE-shb2xIqi-MYpbVxo-1" value="" style="edgeStyle=orthogonalEdgeStyle;rounded=0;orthogonalLoop=1;jettySize=auto;html=1;" edge="1" parent="1" source="JKJViXq0e64Cg5qJfuD_-2" target="JKJViXq0e64Cg5qJfuD_-3">
          <mxGeometry relative="1" as="geometry" />
        </mxCell>
        <mxCell id="JKJViXq0e64Cg5qJfuD_-2" value="Email-Producer" style="rounded=1;whiteSpace=wrap;html=1;" vertex="1" parent="1">
          <mxGeometry x="-210" y="210" width="120" height="60" as="geometry" />
        </mxCell>
        <mxCell id="nRE-shb2xIqi-MYpbVxo-3" value="" style="edgeStyle=orthogonalEdgeStyle;rounded=0;orthogonalLoop=1;jettySize=auto;html=1;" edge="1" parent="1" source="JKJViXq0e64Cg5qJfuD_-3" target="nRE-shb2xIqi-MYpbVxo-2">
          <mxGeometry relative="1" as="geometry" />
        </mxCell>
        <mxCell id="nRE-shb2xIqi-MYpbVxo-4" value="Sim" style="edgeLabel;html=1;align=center;verticalAlign=middle;resizable=0;points=[];" vertex="1" connectable="0" parent="nRE-shb2xIqi-MYpbVxo-3">
          <mxGeometry x="0.2" y="-4" relative="1" as="geometry">
            <mxPoint as="offset" />
          </mxGeometry>
        </mxCell>
        <mxCell id="JKJViXq0e64Cg5qJfuD_-3" value="Verifica se email tem carimbo de entrega" style="rhombus;whiteSpace=wrap;html=1;" vertex="1" parent="1">
          <mxGeometry x="-210" y="345" width="120" height="110" as="geometry" />
        </mxCell>
        <mxCell id="RxgaZWU6d_D_6GXcCjcG-2" value="" style="edgeStyle=orthogonalEdgeStyle;rounded=0;orthogonalLoop=1;jettySize=auto;html=1;" edge="1" parent="1" source="nRE-shb2xIqi-MYpbVxo-2" target="RxgaZWU6d_D_6GXcCjcG-1">
          <mxGeometry relative="1" as="geometry" />
        </mxCell>
        <mxCell id="RxgaZWU6d_D_6GXcCjcG-3" value="Sim" style="edgeLabel;html=1;align=center;verticalAlign=middle;resizable=0;points=[];" vertex="1" connectable="0" parent="RxgaZWU6d_D_6GXcCjcG-2">
          <mxGeometry x="-0.2308" relative="1" as="geometry">
            <mxPoint as="offset" />
          </mxGeometry>
        </mxCell>
        <mxCell id="nRE-shb2xIqi-MYpbVxo-2" value="Verifica se tem anexo" style="rhombus;whiteSpace=wrap;html=1;" vertex="1" parent="1">
          <mxGeometry x="-210" y="535" width="120" height="110" as="geometry" />
        </mxCell>
        <mxCell id="pyLCp4sSMca1QJsfAdAN-3" style="edgeStyle=orthogonalEdgeStyle;rounded=0;orthogonalLoop=1;jettySize=auto;html=1;" edge="1" parent="1" source="RxgaZWU6d_D_6GXcCjcG-1" target="VPc1lidvwcF1vS-pa3vb-1">
          <mxGeometry relative="1" as="geometry">
            <Array as="points">
              <mxPoint x="30" y="740" />
              <mxPoint x="30" y="590" />
            </Array>
          </mxGeometry>
        </mxCell>
        <mxCell id="pyLCp4sSMca1QJsfAdAN-5" value="" style="edgeStyle=orthogonalEdgeStyle;rounded=0;orthogonalLoop=1;jettySize=auto;html=1;" edge="1" parent="1" source="RxgaZWU6d_D_6GXcCjcG-1" target="pyLCp4sSMca1QJsfAdAN-4">
          <mxGeometry relative="1" as="geometry" />
        </mxCell>
        <mxCell id="RxgaZWU6d_D_6GXcCjcG-1" value="Solicita um short link para o anexo" style="whiteSpace=wrap;html=1;" vertex="1" parent="1">
          <mxGeometry x="-210" y="710" width="120" height="60" as="geometry" />
        </mxCell>
        <mxCell id="pyLCp4sSMca1QJsfAdAN-2" value="" style="edgeStyle=orthogonalEdgeStyle;rounded=0;orthogonalLoop=1;jettySize=auto;html=1;" edge="1" parent="1" source="VPc1lidvwcF1vS-pa3vb-1" target="pyLCp4sSMca1QJsfAdAN-1">
          <mxGeometry relative="1" as="geometry" />
        </mxCell>
        <mxCell id="pyLCp4sSMca1QJsfAdAN-9" style="edgeStyle=orthogonalEdgeStyle;rounded=0;orthogonalLoop=1;jettySize=auto;html=1;" edge="1" parent="1" source="VPc1lidvwcF1vS-pa3vb-1" target="pyLCp4sSMca1QJsfAdAN-8">
          <mxGeometry relative="1" as="geometry" />
        </mxCell>
        <mxCell id="pyLCp4sSMca1QJsfAdAN-13" value="usuario clicou no link" style="edgeLabel;html=1;align=center;verticalAlign=middle;resizable=0;points=[];" vertex="1" connectable="0" parent="pyLCp4sSMca1QJsfAdAN-9">
          <mxGeometry x="0.311" y="-2" relative="1" as="geometry">
            <mxPoint as="offset" />
          </mxGeometry>
        </mxCell>
        <mxCell id="VPc1lidvwcF1vS-pa3vb-1" value="serviço de shortlink" style="rounded=1;whiteSpace=wrap;html=1;" vertex="1" parent="1">
          <mxGeometry x="230" y="560" width="120" height="60" as="geometry" />
        </mxCell>
        <mxCell id="pyLCp4sSMca1QJsfAdAN-1" value="BD" style="shape=cylinder3;whiteSpace=wrap;html=1;boundedLbl=1;backgroundOutline=1;size=15;" vertex="1" parent="1">
          <mxGeometry x="260" y="660" width="60" height="80" as="geometry" />
        </mxCell>
        <mxCell id="pyLCp4sSMca1QJsfAdAN-4" value="Insere o link dentro do HTML do email" style="whiteSpace=wrap;html=1;" vertex="1" parent="1">
          <mxGeometry x="-210" y="820" width="120" height="60" as="geometry" />
        </mxCell>
        <mxCell id="pyLCp4sSMca1QJsfAdAN-11" style="edgeStyle=orthogonalEdgeStyle;rounded=0;orthogonalLoop=1;jettySize=auto;html=1;" edge="1" parent="1" source="pyLCp4sSMca1QJsfAdAN-8" target="pyLCp4sSMca1QJsfAdAN-10">
          <mxGeometry relative="1" as="geometry" />
        </mxCell>
        <mxCell id="pyLCp4sSMca1QJsfAdAN-8" value="&lt;div&gt;&lt;br&gt;&lt;/div&gt;&lt;div&gt;&lt;br&gt;&lt;/div&gt;&lt;div&gt;&lt;br&gt;&lt;/div&gt;&lt;div&gt;&lt;br&gt;&lt;/div&gt;&lt;div&gt;&lt;br&gt;&lt;/div&gt;&lt;div&gt;&lt;br&gt;&lt;/div&gt;&lt;div&gt;&lt;br&gt;&lt;/div&gt;&lt;div&gt;communication-attachment-opened&lt;/div&gt;" style="points=[];aspect=fixed;html=1;align=center;shadow=0;dashed=0;fillColor=#FF6A00;strokeColor=none;shape=mxgraph.alibaba_cloud.kafka;" vertex="1" parent="1">
          <mxGeometry x="370" y="370" width="56.699999999999996" height="42" as="geometry" />
        </mxCell>
        <mxCell id="pyLCp4sSMca1QJsfAdAN-12" style="edgeStyle=orthogonalEdgeStyle;rounded=0;orthogonalLoop=1;jettySize=auto;html=1;" edge="1" parent="1" source="pyLCp4sSMca1QJsfAdAN-10" target="JKJViXq0e64Cg5qJfuD_-1">
          <mxGeometry relative="1" as="geometry" />
        </mxCell>
        <mxCell id="pyLCp4sSMca1QJsfAdAN-10" value="tracking-consumer" style="rounded=1;whiteSpace=wrap;html=1;" vertex="1" parent="1">
          <mxGeometry x="338.35" y="210" width="120" height="60" as="geometry" />
        </mxCell>
        <mxCell id="pyLCp4sSMca1QJsfAdAN-19" value="" style="edgeStyle=orthogonalEdgeStyle;rounded=0;orthogonalLoop=1;jettySize=auto;html=1;" edge="1" parent="1" source="pyLCp4sSMca1QJsfAdAN-14" target="pyLCp4sSMca1QJsfAdAN-20">
          <mxGeometry relative="1" as="geometry">
            <mxPoint x="270" y="100" as="targetPoint" />
          </mxGeometry>
        </mxCell>
        <mxCell id="pyLCp4sSMca1QJsfAdAN-14" value="DeliveryCenter" style="whiteSpace=wrap;html=1;rounded=1;" vertex="1" parent="1">
          <mxGeometry x="70" y="70" width="120" height="60" as="geometry" />
        </mxCell>
        <mxCell id="pyLCp4sSMca1QJsfAdAN-20" value="Criar novo evento no delivery para dizer que o anexo foi baixado" style="text;html=1;align=left;verticalAlign=middle;whiteSpace=wrap;rounded=0;strokeColor=default;" vertex="1" parent="1">
          <mxGeometry x="290" y="57.5" width="270" height="85" as="geometry" />
        </mxCell>
      </root>
    </mxGraphModel>
  </diagram>
</mxfile>
